<svg xmlns="http://www.w3.org/2000/svg" width="76" height="560" version="1"><g id="Page-1" fill="none" fill-rule="evenodd"><g id="Desktop-HD---v1-Copy-30" fill="#FFF" transform="translate(-654 -81)"><g id="VINTED36946" transform="translate(120 81)"><path id="Fill-1" d="M839 280l-8-4-5-1h-3c-1 2-4 3-6 2s-5 0-7-2h-4l-6 2c-3 0-7 0-9-2h-4l-5-1c-4 0-7 1-10-1h-3c-4-2-5-1-7 1h-4l-11-1-6 1c-3 1-6 2-10 1-3 0-4-1-5-3l-3-3-7-1-7-1c-5 0-9-1-14-4l-5-1h-5l-10-4-3-1-4-2c-2-2-5-5-8-5-3-2-6-2-8-1h-3l-5 2-4-1-4-1c-2-2-5-2-7-1l-7 2-5 1-3 2c-3-2-5-2-7 0l-3 1-10-3-5-2c-2-1-2 1-4 1-2-1-3-2-5-1l-2-1h-7l-14 2-6 1-9-1-4-1-5 1c-3 1-5 1-8-1l-6-2-5-1-7-5c-4 0-6 0-8 3-2 2-5 4-8 2l-10 3h-4c-2-1-4-2-6 0l-9 1c-2 1-4 0-5-1l-3-1c-3 0-5-2-8-1-3-2-6-2-9-2l-7 1c-1 1-3 0-3 2l-6 2-3 1c-2 1-3 2-5 1l-9 4-6-1-9-3h-6l-6 2c-2 0-4 1-6-1l-3-1-3-2-4-3-4-1-3-1-3-1-5 2c-3-1-4 1-6 1l-5 1c-3 1-4 2-6 1h-2c-5 0-8-2-12-4l-14-2h-5c-2 1-5 0-7-1l-7 1c-1 1-3 1-6-1l4 76 560-29-1-9z" transform="rotate(93 558 279)"/></g></g></g></svg>
